<svg class="animated" id="freepik_stories-projections" xmlns="http://www.w3.org/2000/svg" viewBox="0 0 500 500" version="1.1" xmlns:xlink="http://www.w3.org/1999/xlink" xmlns:svgjs="http://svgjs.com/svgjs"><style>svg#freepik_stories-projections:not(.animated) .animable {opacity: 0;}svg#freepik_stories-projections.animated #freepik--character-3--inject-146 {animation: 1s 1 forwards cubic-bezier(.36,-0.01,.5,1.38) slideDown,1.5s Infinite  linear floating;animation-delay: 0s,1s;}svg#freepik_stories-projections.animated #freepik--character-2--inject-146 {animation: 1s 1 forwards cubic-bezier(.36,-0.01,.5,1.38) slideDown,1.5s Infinite  linear floating;animation-delay: 0s,1s;}svg#freepik_stories-projections.animated #freepik--Table--inject-146 {animation: 1s 1 forwards cubic-bezier(.36,-0.01,.5,1.38) slideLeft;animation-delay: 0s;}svg#freepik_stories-projections.animated #freepik--Projector--inject-146 {animation: 1s 1 forwards cubic-bezier(.36,-0.01,.5,1.38) slideLeft;animation-delay: 0s;}svg#freepik_stories-projections.animated #freepik--character-1--inject-146 {animation: 1s 1 forwards cubic-bezier(.36,-0.01,.5,1.38) slideDown,1.5s Infinite  linear floating;animation-delay: 0s,1s;}            @keyframes slideDown {                0% {                    opacity: 0;                    transform: translateY(-30px);                }                100% {                    opacity: 1;                    transform: translateY(0);                }            }                    @keyframes floating {                0% {                    opacity: 1;                    transform: translateY(0px);                }                50% {                    transform: translateY(-10px);                }                100% {                    opacity: 1;                    transform: translateY(0px);                }            }                    @keyframes slideLeft {                0% {                    opacity: 0;                    transform: translateX(-30px);                }                100% {                    opacity: 1;                    transform: translateX(0);                }            }        </style><g id="freepik--Floor--inject-146" class="animable" style="transform-origin: 250.002px 351.13px;"><path d="M410.26,258c89.08,51.43,89.55,134.82,1.05,186.26s-232.48,51.43-321.56,0S.19,309.4,88.69,258,321.17,206.53,410.26,258Z" style="fill: rgb(240, 240, 240); transform-origin: 250.002px 351.13px;" id="elcq41bfpbku" class="animable"></path></g><g id="freepik--Shadows--inject-146" class="animable" style="transform-origin: 235.025px 329.754px;"><path d="M218,234.18l-10-5.77a7,7,0,0,0-7,0L133.3,267.5c-13.81-2.05-29,0-39.8,6.28s-14.3,15-10.82,22.94L38.15,322.43a3,3,0,0,0,0,5.2l10,5.76a7,7,0,0,0,7,0l41.49-23.95c16.41,7.85,40.69,7.34,56-1.54s16.08-22.83,2.65-32.3L218,239.37A3,3,0,0,0,218,234.18Z" style="fill: rgb(224, 224, 224); transform-origin: 128.071px 280.9px;" id="elbbi16x91xdl" class="animable"></path><path d="M300.51,270.49c16.31,9.42,16.4,24.7.19,34.12s-42.59,9.42-58.91,0-16.4-24.7-.19-34.12S284.19,261.07,300.51,270.49Z" style="fill: rgb(225, 225, 225); transform-origin: 271.148px 287.55px;" id="ely2k235an9vs" class="animable"></path><path d="M421.11,321.76c16.32,9.42,16.4,24.69.19,34.12s-42.58,9.42-58.9,0-16.41-24.7-.2-34.12S404.79,312.33,421.11,321.76Z" style="fill: rgb(225, 225, 225); transform-origin: 391.752px 338.82px;" id="eloo0znyh44pl" class="animable"></path><path d="M191.85,390.85c16.32,9.42,16.41,24.7.19,34.12s-42.58,9.42-58.9,0-16.41-24.7-.19-34.12S175.53,381.43,191.85,390.85Z" style="fill: rgb(225, 225, 225); transform-origin: 162.495px 407.91px;" id="elno6ugn6mup" class="animable"></path></g><g id="freepik--Plant--inject-146" class="animable" style="transform-origin: 262.717px 417.635px;"><path d="M250.38,450.87c-7.17-7.32-11.38-29.16-4.39-35h35.6c7,5.83,2.78,27.62-4.38,35l-.2.2-.25.24c-.2.2-.42.39-.64.58l-.18.14c-.17.13-.35.27-.54.4s-.62.42-.93.6c-5.9,3.4-15.46,3.4-21.36,0h0c-.32-.19-.64-.39-.94-.6s-.34-.25-.5-.39l-.21-.16c-.23-.18-.43-.37-.63-.55l-.28-.29Z" style="fill: rgb(55, 71, 79); transform-origin: 263.792px 435.725px;" id="elagiuu3eih2q" class="animable"></path><path d="M278.46,413.57c8.13,4.69,8.13,12.3,0,17s-21.29,4.69-29.41,0-8.12-12.29,0-17S270.38,408.88,278.46,413.57Z" style="fill: rgb(69, 90, 100); transform-origin: 263.759px 422.068px;" id="elo7qbp12dyi" class="animable"></path><path d="M274.54,415.83c6,3.44,6,9,0,12.5s-15.63,3.44-21.6,0-6-9,0-12.5S268.59,412.38,274.54,415.83Z" style="fill: rgb(46, 53, 58); transform-origin: 263.746px 422.078px;" id="el82705r6uneq" class="animable"></path><path d="M253,421.75c6-3.44,15.63-3.44,21.6,0a9.92,9.92,0,0,1,3.57,3.27,9.86,9.86,0,0,1-3.59,3.26c-6,3.44-15.63,3.44-21.6,0a9.69,9.69,0,0,1-3.57-3.28A9.92,9.92,0,0,1,253,421.75Z" style="fill: rgb(235, 235, 235); transform-origin: 263.79px 425.015px;" id="elozgreihbrd" class="animable"></path><path d="M257.69,407.19c1.06-1.59,2.63-2.81,3.59-4.47,2-3.48-.4-6.88.61-10.42a5.78,5.78,0,0,1,3.19-3.43,17.81,17.81,0,0,1,4.65-1.21,7.47,7.47,0,0,0,2.46-.7c.92-.52,1.2-1.43,1.78-2.23a15.5,15.5,0,0,1,2.25-2.4,8.85,8.85,0,0,1,6.1-2.64c4.84.22,4.71,4.39,3.33,7.54s-1.76,4.17,1.26,7.5,3,7.34-.57,9.61-6,2.58-4.53,6.94c1.27,3.91,2.06,7.24-1.55,11.42a11.76,11.76,0,0,1-9.5,4.45c-7.22-.3-13.1-6.15-14.3-13.1a9.62,9.62,0,0,1,1.09-6.58Z" style="fill: rgb(186, 104, 200); transform-origin: 272.694px 403.422px;" id="el3qd5pxj9nnj" class="animable"></path><g id="el7zd6d752qcb"><path d="M257.69,407.19c1.06-1.59,2.63-2.81,3.59-4.47,2-3.48-.4-6.88.61-10.42a5.78,5.78,0,0,1,3.19-3.43,17.81,17.81,0,0,1,4.65-1.21,7.47,7.47,0,0,0,2.46-.7c.92-.52,1.2-1.43,1.78-2.23a15.5,15.5,0,0,1,2.25-2.4,8.85,8.85,0,0,1,6.1-2.64c4.84.22,4.71,4.39,3.33,7.54s-1.76,4.17,1.26,7.5,3,7.34-.57,9.61-6,2.58-4.53,6.94c1.27,3.91,2.06,7.24-1.55,11.42a11.76,11.76,0,0,1-9.5,4.45c-7.22-.3-13.1-6.15-14.3-13.1a9.62,9.62,0,0,1,1.09-6.58Z" style="fill: rgb(186, 104, 200); opacity: 0.3; isolation: isolate; transform-origin: 272.694px 403.422px;" class="animable"></path></g><g id="elu6au9nz8q5b"><path d="M257.69,407.19c1.06-1.59,2.63-2.81,3.59-4.47,2-3.48-.4-6.88.61-10.42a5.78,5.78,0,0,1,3.19-3.43,17.81,17.81,0,0,1,4.65-1.21,7.47,7.47,0,0,0,2.46-.7c.92-.52,1.2-1.43,1.78-2.23a15.5,15.5,0,0,1,2.25-2.4,8.85,8.85,0,0,1,6.1-2.64c4.84.22,4.71,4.39,3.33,7.54s-1.76,4.17,1.26,7.5,3,7.34-.57,9.61-6,2.58-4.53,6.94c1.27,3.91,2.06,7.24-1.55,11.42a11.76,11.76,0,0,1-9.5,4.45c-7.22-.3-13.1-6.15-14.3-13.1a9.62,9.62,0,0,1,1.09-6.58Z" style="opacity: 0.3; isolation: isolate; transform-origin: 272.694px 403.422px;" class="animable"></path></g><path d="M282.36,398.58a.36.36,0,0,0-.43-.26,57.75,57.75,0,0,0-11.3,4.27,52,52,0,0,1,8.9-15.24.36.36,0,0,0,0-.51.37.37,0,0,0-.5,0,50.29,50.29,0,0,0-7.76,12.5,28.05,28.05,0,0,0-3.65-5.94.36.36,0,0,0-.51,0,.35.35,0,0,0,0,.5,27.2,27.2,0,0,1,3.8,6.37c-.41.95-.84,1.95-1.21,3a.38.38,0,0,0-.09.25,62.41,62.41,0,0,0-3.84,22.23.35.35,0,0,0,.34.36h.12a.36.36,0,0,0,.25-.34,61.73,61.73,0,0,1,3.81-22c4.31-2.66,11.8-4.63,11.87-4.66a.36.36,0,0,0,.26-.43S282.37,398.59,282.36,398.58Z" style="fill: rgb(255, 255, 255); transform-origin: 274.098px 406.426px;" id="elia8a8ktymhr" class="animable"></path><path d="M264.35,427.83c-.2.12-1.86.7-2.1.77-2.66.77-6.13.36-9.27-.11-2.06-.31-4.85-.74-6.38-2.28a2.73,2.73,0,0,1-.74-2.94c.48-1,1.84-1.67,1.95-2.81-2.25-.75-4.91-.16-6.92-1.41a8.2,8.2,0,0,1-3.13-4.09,4.41,4.41,0,0,1-.15-3.33c.54-1.12,2-1.39,3.23-1.58a2.37,2.37,0,0,0,.94-.27.86.86,0,0,0,.42-.84c-.1-.4-.52-.6-.91-.72-.84-.27-1.67-.43-2.5-.74a3.82,3.82,0,0,1-2-1.55,5.1,5.1,0,0,1-.38-3,45.66,45.66,0,0,1,.73-5.21,34.06,34.06,0,0,0,.42-4.51,31.68,31.68,0,0,1,13.15.3c2.38.49,5.83,1.6,6.87,4.08a4.58,4.58,0,0,1,.26,2.23,7.29,7.29,0,0,1-.23,1c-.05.2-.26,1,.25.65a1,1,0,0,0,.25-.35l1.67-3.33a1.9,1.9,0,0,1,.66-.87c.67-.42,2.5-.09,4.36,1.41a7.32,7.32,0,0,1,2.35,4.13,20.1,20.1,0,0,1-.29,7.64l1.62-2.26c1.91-2.64,3.08,2.19,3.16,3.23a22.78,22.78,0,0,1-1.51,9.53A15.81,15.81,0,0,1,264.35,427.83Z" style="fill: rgb(186, 104, 200); transform-origin: 254.004px 410.846px;" id="elaioo5ps9py7" class="animable"></path><path d="M259.29,415.35a29.09,29.09,0,0,1,3.22-12.25l0-.08a.32.32,0,0,0-.15-.43h0a.33.33,0,0,0-.44.15v.09a30.52,30.52,0,0,0-3.25,11.48c-5.18-8.72-12.77-17-16.76-19.15a.35.35,0,0,0-.47.14.33.33,0,0,0,.12.46h0c3.94,2.14,11.44,10.34,16.54,19a20,20,0,0,0-13-.87.33.33,0,0,0-.21.41h0a.34.34,0,0,0,.26.22h.16a19.3,19.3,0,0,1,13.33,1.22,35.7,35.7,0,0,1,4.61,11.83.35.35,0,0,0,.23.29h.16a.34.34,0,0,0,.29-.37v0C263.45,423.74,261.67,419.52,259.29,415.35Z" style="fill: rgb(255, 255, 255); transform-origin: 252.662px 411.49px;" id="els1e49p7q96" class="animable"></path></g><g id="freepik--Board--inject-146" class="animable" style="transform-origin: 129.082px 166.69px;"><path d="M123.31,304.35v8.53a1.5,1.5,0,0,0,3,0v-8.53Z" style="fill: rgb(186, 104, 200); transform-origin: 124.81px 309.365px;" id="el4mj1r7g39pk" class="animable"></path><path d="M126.3,263.81a1.5,1.5,0,0,0-3,0v40.54h3Z" style="fill: rgb(38, 50, 56); transform-origin: 124.8px 283.33px;" id="elll6nj4x1h7q" class="animable"></path><path d="M129.93,260.94a1.5,1.5,0,1,0-2,2.22l27,24.34,2.13-2.12Z" style="fill: rgb(38, 50, 56); transform-origin: 142.195px 273.98px;" id="elh77jva8ejsf" class="animable"></path><path d="M161.78,289.7,157,285.38l-2.13,2.12,4.9,4.42a1.5,1.5,0,0,0,1,.39,1.54,1.54,0,0,0,1.12-.49A1.51,1.51,0,0,0,161.78,289.7Z" style="fill: rgb(186, 104, 200); transform-origin: 158.571px 288.845px;" id="el68tqlhnjca" class="animable"></path><path d="M87.83,289.7a1.51,1.51,0,0,0-.11,2.12,1.54,1.54,0,0,0,1.12.49,1.5,1.5,0,0,0,1-.39l4.9-4.42-2.12-2.12Z" style="fill: rgb(186, 104, 200); transform-origin: 91.0388px 288.845px;" id="elgchb84mztn" class="animable"></path><path d="M121.8,261.05a1.49,1.49,0,0,0-2.12-.11L92.62,285.38l2.12,2.12,27-24.34A1.5,1.5,0,0,0,121.8,261.05Z" style="fill: rgb(38, 50, 56); transform-origin: 107.412px 274.025px;" id="elrx6j85h7zke" class="animable"></path><path d="M133.63,260.05H116v5.11c0,1.31.88,2.62,2.61,3.62a13.79,13.79,0,0,0,12.48,0c1.71-1,2.57-2.31,2.56-3.62h0Z" style="fill: rgb(55, 71, 79); transform-origin: 124.825px 265.161px;" id="elzw4zez6pmf" class="animable"></path><path d="M131,256.44c3.45,2,3.47,5.23,0,7.22a13.73,13.73,0,0,1-12.48,0c-3.46-2-3.48-5.23,0-7.22A13.75,13.75,0,0,1,131,256.44Z" style="fill: rgb(69, 90, 100); transform-origin: 124.756px 260.051px;" id="el5br8x2idv6x" class="animable"></path><path d="M122.31,73.21v186.3h0a1.25,1.25,0,0,0,.73,1,3.88,3.88,0,0,0,3.54,0,1.22,1.22,0,0,0,.72-1V73.21Z" style="fill: rgb(38, 50, 56); transform-origin: 124.805px 167.074px;" id="elqk09pb3ogvq" class="animable"></path><polygon points="43.16 116.56 43.16 276.88 205.02 183.44 205.02 22.41 43.16 116.56" style="fill: rgb(69, 90, 100); transform-origin: 124.09px 149.645px;" id="el5f82bb7lmj" class="animable"></polygon><polygon points="49.15 120 199.02 32.84 199.02 179.97 49.15 266.5 49.15 120" style="fill: rgb(250, 250, 250); transform-origin: 124.085px 149.67px;" id="elycdwy44h8nd" class="animable"></polygon><path d="M47.72,114a10,10,0,0,1,4.53,7.85c0,2.88-2,4-4.56,2.59a10,10,0,0,1-4.53-7.85C43.17,113.67,45.21,112.51,47.72,114Z" style="fill: rgb(38, 50, 56); transform-origin: 47.705px 119.199px;" id="elr2kss5pnln9" class="animable"></path><path d="M215,27.23c0-.08,0-.15,0-.22s0-.07,0-.1v-.05s0-.05,0-.08a1.8,1.8,0,0,0,0-.22,2.23,2.23,0,0,0,0-.23h0a2.07,2.07,0,0,0,0-.22c0-.08,0-.15,0-.23a.29.29,0,0,1,0-.09v-.05l0-.1-.06-.24a1.21,1.21,0,0,1-.05-.18v-.06c0-.08,0-.16-.08-.24a2.09,2.09,0,0,0-.08-.23v0l0,0,0-.14-.09-.22c0-.06-.05-.11-.07-.16V24a2.14,2.14,0,0,1-.1-.22l-.12-.24,0,0,0,0c0-.07-.07-.13-.1-.19l-.13-.24-.07-.11,0-.05-.13-.2-.18-.29,0,0c-.09-.14-.19-.27-.29-.41h0c-.07-.09-.13-.18-.2-.26l-.17-.21h0l-.17-.21-.18-.19,0,0,0,0-.13-.13-.19-.19-.06-.05,0,0-.1-.09-.2-.18-.09-.07,0,0-.07-.05-.2-.16-.15-.1,0,0,0,0-.19-.12-.19-.12-.05,0-.14-.08-.19-.1-.12,0,0,0h0l-.19-.08-.18-.07h-.06l-.12,0-.19-.05-.09,0h-.1a1.2,1.2,0,0,0-.2,0l-.12,0h-.53L208,19h-.06l-.26.07h0l-.34.16L44.48,113.64a1.58,1.58,0,0,1,.35-.16,1.29,1.29,0,0,1,.28-.08l0,0,.34,0h.08a1.93,1.93,0,0,1,.34,0h0l.38.05h0l.4.12h0l.43.18h0l.45.24c.15.08.3.18.45.28l0,0c.14.1.28.2.41.31l0,0c.13.11.26.22.38.34l.05,0,.38.38,0,0c.13.14.26.29.38.44h0c.12.15.25.31.37.48h0c.11.14.21.3.32.45l.18.29.15.25a.75.75,0,0,0,.07.12l.23.42,0,.05c.09.17.17.35.25.53v0c.07.18.15.35.21.53v0c.07.18.13.36.19.54v0a4.42,4.42,0,0,1,.14.52l0,0c0,.18.07.36.1.53h0c0,.18.05.36.07.54v0c0,.18,0,.35,0,.53s0,.33,0,.49v0a2.83,2.83,0,0,1-.06.42v.06c0,.13-.06.25-.1.37a.14.14,0,0,1,0,.07,3.05,3.05,0,0,1-.13.32v0q-.09.18-.18.33l0,0-.18.23-.07.08c0,.06-.11.11-.17.17l-.07.06a1.59,1.59,0,0,1-.27.18h0L213.71,30.35a2.48,2.48,0,0,0,.26-.19l.07-.06.17-.16.07-.08a2,2,0,0,0,.18-.23l0,0h0a3.14,3.14,0,0,0,.18-.31h0l0,0a1.8,1.8,0,0,0,.08-.21.76.76,0,0,0,0-.11.25.25,0,0,0,0-.07.14.14,0,0,0,0-.06,1,1,0,0,0,.06-.23.29.29,0,0,0,0-.09V28.4s0-.06,0-.09l0-.21a.57.57,0,0,0,0-.13v-.09c0-.07,0-.14,0-.22v-.22h0Z" style="fill: rgb(55, 71, 79); transform-origin: 129.742px 71.65px;" id="el63c419o6ct7" class="animable"></path><path d="M61.68,159.78l16,1.38.06,21.22c-10.2,5.89-18.49,1.17-18.53-10.56A33.74,33.74,0,0,1,61.68,159.78Z" style="fill: rgb(186, 104, 200); transform-origin: 68.475px 172.348px;" id="el5ml42uwr6r" class="animable"></path><path d="M86.92,137.41c5.51.5,9.23,5.21,9.25,13.06,0,11.73-8.21,26-18.41,31.91l-.06-21.24,9.14-23.61Z" style="fill: rgb(186, 104, 200); transform-origin: 86.935px 159.895px;" id="elmnqm46ld5ep" class="animable"></path><path d="M77.64,139.94a15.93,15.93,0,0,1,9.25-2.49l0,.12L77.7,161.16l-16-1.38C64.86,151.6,70.81,143.88,77.64,139.94Z" style="fill: rgb(186, 104, 200); transform-origin: 74.295px 149.298px;" id="elpb8etlfdjgg" class="animable"></path><g id="el4piu1c6k5wh"><g style="opacity: 0.2; transform-origin: 74.295px 149.298px;" class="animable"><path d="M77.64,139.94a15.93,15.93,0,0,1,9.25-2.49l0,.12L77.7,161.16l-16-1.38C64.86,151.6,70.81,143.88,77.64,139.94Z" style="fill: rgb(255, 255, 255); transform-origin: 74.295px 149.298px;" id="elov0zwwt4o6" class="animable"></path></g></g><path d="M61.68,159.78l16,1.38.06,21.22c-10.2,5.89-18.49,1.17-18.53-10.56A33.74,33.74,0,0,1,61.68,159.78Z" style="fill: rgb(186, 104, 200); transform-origin: 68.475px 172.348px;" id="elugja7zuba1" class="animable"></path><polygon points="68.99 219.39 69 222.88 59.39 228.42 59.38 224.94 68.99 219.39" style="fill: rgb(224, 224, 224); transform-origin: 64.19px 223.905px;" id="elknm4tl6r0ar" class="animable"></polygon><polygon points="73.37 202.91 73.38 206.39 59.35 214.49 59.34 211.01 73.37 202.91" style="fill: rgb(224, 224, 224); transform-origin: 66.36px 208.7px;" id="el6o6859y74u8" class="animable"></polygon><polygon points="90.35 200.09 90.36 203.57 59.37 221.46 59.36 217.97 90.35 200.09" style="fill: rgb(224, 224, 224); transform-origin: 74.86px 210.775px;" id="elyqa412vcmt9" class="animable"></polygon><polygon points="140.82 163.97 140.83 167.45 112.17 183.99 112.16 180.51 140.82 163.97" style="fill: rgb(224, 224, 224); transform-origin: 126.495px 173.98px;" id="el6vvgpg4hlwq" class="animable"></polygon><g id="elr6j5r56v6r"><g style="opacity: 0.1; transform-origin: 86.935px 159.895px;" class="animable"><path d="M86.92,137.41c5.51.5,9.23,5.21,9.25,13.06,0,11.73-8.21,26-18.41,31.91l-.06-21.24,9.14-23.61Z" id="elkkunegfv26q" class="animable" style="transform-origin: 86.935px 159.895px;"></path></g></g><path d="M109.17,121.74c1.54-.89,2.79-.18,2.8,1.59a6.15,6.15,0,0,1-2.79,4.83c-1.54.89-2.79.17-2.8-1.6A6.12,6.12,0,0,1,109.17,121.74Z" style="fill: rgb(186, 104, 200); transform-origin: 109.175px 124.949px;" id="elmcpxn60iay" class="animable"></path><path d="M109.2,132.8c1.54-.89,2.79-.18,2.8,1.6a6.15,6.15,0,0,1-2.78,4.82c-1.55.89-2.8.18-2.81-1.6A6.13,6.13,0,0,1,109.2,132.8Z" style="fill: rgb(186, 104, 200); transform-origin: 109.205px 136.01px;" id="el30h1ku7t8d2" class="animable"></path><path d="M109.23,143.86c1.54-.89,2.8-.17,2.8,1.6a6.12,6.12,0,0,1-2.78,4.82c-1.55.9-2.8.17-2.81-1.6A6.13,6.13,0,0,1,109.23,143.86Z" style="fill: rgb(186, 104, 200); transform-origin: 109.235px 147.072px;" id="el1ffq35z9hxn" class="animable"></path><path d="M109.26,154.92c1.54-.89,2.8-.17,2.8,1.6a6.12,6.12,0,0,1-2.78,4.82c-1.55.89-2.8.18-2.8-1.59A6.13,6.13,0,0,1,109.26,154.92Z" style="fill: rgb(186, 104, 200); transform-origin: 109.27px 158.131px;" id="elosyb6wgd9s" class="animable"></path><polygon points="124.9 114.02 124.91 117.7 115.72 123.01 115.71 119.32 124.9 114.02" style="fill: rgb(224, 224, 224); transform-origin: 120.31px 118.515px;" id="elx7igkyy12oo" class="animable"></polygon><polygon points="137.17 106.93 137.18 110.62 128 115.92 127.99 112.24 137.17 106.93" style="fill: rgb(224, 224, 224); transform-origin: 132.585px 111.425px;" id="elx8w42h0mhcq" class="animable"></polygon><polygon points="140.74 138.12 140.75 141.8 127.53 149.44 127.52 145.75 140.74 138.12" style="fill: rgb(224, 224, 224); transform-origin: 134.135px 143.78px;" id="el3hhbmzlzc8q" class="animable"></polygon><polygon points="132.64 131.71 132.65 135.4 115.78 145.14 115.77 141.45 132.64 131.71" style="fill: rgb(224, 224, 224); transform-origin: 124.21px 138.425px;" id="elcpu05xhg46j" class="animable"></polygon><polygon points="127.36 123.68 127.37 127.36 115.75 134.07 115.74 130.39 127.36 123.68" style="fill: rgb(224, 224, 224); transform-origin: 121.555px 128.875px;" id="elg5jw3y8jp5r" class="animable"></polygon><polygon points="124.99 147.21 125 150.9 115.82 156.2 115.81 152.52 124.99 147.21" style="fill: rgb(224, 224, 224); transform-origin: 120.405px 151.705px;" id="elw9tpmthvkx" class="animable"></polygon><polygon points="97.77 202.78 97.78 206.26 73.88 220.06 73.87 216.57 97.77 202.78" style="fill: rgb(224, 224, 224); transform-origin: 85.825px 211.42px;" id="elmejpyl859dq" class="animable"></polygon><polygon points="85.25 189.07 85.27 192.56 59.34 207.53 59.33 204.04 85.25 189.07" style="fill: rgb(224, 224, 224); transform-origin: 72.3px 198.3px;" id="elwk1zckq8dod" class="animable"></polygon><polygon points="140.84 170.94 140.85 174.42 128.08 181.79 128.07 178.31 140.84 170.94" style="fill: rgb(224, 224, 224); transform-origin: 134.46px 176.365px;" id="elx9fiu28pci" class="animable"></polygon><polygon points="140.86 177.9 140.87 181.39 123.47 191.43 123.46 187.94 140.86 177.9" style="fill: rgb(224, 224, 224); transform-origin: 132.165px 184.665px;" id="el9hr60bsqkz" class="animable"></polygon><polygon points="165.3 149.83 165.31 153.31 151.28 161.41 151.27 157.93 165.3 149.83" style="fill: rgb(224, 224, 224); transform-origin: 158.29px 155.62px;" id="elb1z0pctxyq6" class="animable"></polygon><polygon points="188.07 136.69 188.08 140.17 169.25 151.04 169.24 147.56 188.07 136.69" style="fill: rgb(224, 224, 224); transform-origin: 178.66px 143.865px;" id="el8fdnatruons" class="animable"></polygon><polygon points="164.31 104.18 164.4 135.52 159.15 138.56 159.06 107.21 164.31 104.18" style="fill: rgb(186, 104, 200); transform-origin: 161.73px 121.37px;" id="el5beygku5wuu" class="animable"></polygon><polygon points="172.2 104.85 172.28 130.98 167.03 134.01 166.95 107.89 172.2 104.85" style="fill: rgb(186, 104, 200); transform-origin: 169.615px 119.43px;" id="elshkrvq68m5" class="animable"></polygon><polygon points="180.04 88.53 180.15 126.43 174.9 129.46 174.79 91.56 180.04 88.53" style="fill: rgb(186, 104, 200); transform-origin: 177.47px 108.995px;" id="elt0s8tf5m2or" class="animable"></polygon><polygon points="187.9 77.47 188.03 121.88 182.78 124.91 182.65 80.51 187.9 77.47" style="fill: rgb(186, 104, 200); transform-origin: 185.34px 101.19px;" id="els96j02yk8kr" class="animable"></polygon><polygon points="160.91 166.32 160.92 169.81 151.32 175.35 151.31 171.86 160.91 166.32" style="fill: rgb(224, 224, 224); transform-origin: 156.115px 170.835px;" id="elg52so2hzvce" class="animable"></polygon><polygon points="118.58 190.76 118.58 194.25 102.66 203.44 102.65 199.96 118.58 190.76" style="fill: rgb(224, 224, 224); transform-origin: 110.615px 197.1px;" id="eliovy0zrnsw" class="animable"></polygon><polygon points="123.19 181.13 123.19 184.61 95.24 200.75 95.23 197.27 123.19 181.13" style="fill: rgb(224, 224, 224); transform-origin: 109.21px 190.94px;" id="elc1qcxcmgye4" class="animable"></polygon><polygon points="110.16 174.69 110.17 178.18 90.15 189.73 90.14 186.25 110.16 174.69" style="fill: rgb(224, 224, 224); transform-origin: 100.155px 182.21px;" id="el6kku0hwlxcu" class="animable"></polygon><polygon points="107.27 183.34 107.28 186.82 78.27 203.57 78.26 200.09 107.27 183.34" style="fill: rgb(224, 224, 224); transform-origin: 92.77px 193.455px;" id="el4l2cyagymi5" class="animable"></polygon><polygon points="188.11 150.62 188.12 154.1 165.81 166.98 165.8 163.5 188.11 150.62" style="fill: rgb(224, 224, 224); transform-origin: 176.96px 158.8px;" id="elk5uehl4017e" class="animable"></polygon><polygon points="188.09 143.66 188.1 147.14 151.3 168.38 151.29 164.9 188.09 143.66" style="fill: rgb(224, 224, 224); transform-origin: 169.695px 156.02px;" id="elhvp19raexb6" class="animable"></polygon><polygon points="177.18 135.99 177.19 139.48 151.26 154.45 151.25 150.97 177.18 135.99" style="fill: rgb(224, 224, 224); transform-origin: 164.22px 145.22px;" id="el79bibxj60ek" class="animable"></polygon><polygon points="188.03 124.5 188.04 126.32 151.29 147.54 151.28 145.71 188.03 124.5" style="fill: rgb(57, 90, 101); transform-origin: 169.66px 136.02px;" id="elz7x4hwzmyme" class="animable"></polygon><polygon points="156.47 121.65 156.53 140.07 151.28 143.1 151.22 124.68 156.47 121.65" style="fill: rgb(186, 104, 200); transform-origin: 153.875px 132.375px;" id="el3eybos3law6" class="animable"></polygon></g><g id="freepik--character-3--inject-146" class="animable" style="transform-origin: 399.297px 233.965px;"><path d="M431.72,186.86c-1.45,16.1-.21,17.75-11.15,16.93V186.86Z" style="fill: rgb(242, 143, 143); transform-origin: 426.145px 195.409px;" id="elgnema93j6vd" class="animable"></path><path d="M419.85,158c9.7-.62,17.75,2.69,12.59,30.44-4.75,2.58-12.59,1.15-12.59,1.15Z" style="fill: rgb(55, 71, 79); transform-origin: 426.951px 173.96px;" id="elfukp8zjhp9" class="animable"></path><path d="M401.92,346.92c-.69,2.18-3.08,3.43-5.36,3.61s-4.53-.46-6.78-.87c-5-.91-9.89,0-14.91-.12A21.15,21.15,0,0,1,370,349a8,8,0,0,1-4.2-2.47,5.47,5.47,0,0,1-1.2-2.63,5.2,5.2,0,0,0,1.2,4.11,8.12,8.12,0,0,0,4.2,2.47,21.14,21.14,0,0,0,4.9.53c5,.12,9.88-.79,14.91.13,2.25.4,4.5,1,6.78.86s4.67-1.42,5.36-3.6a5.85,5.85,0,0,0,.18-2.32A4.83,4.83,0,0,1,401.92,346.92Z" style="fill: rgb(38, 50, 56); transform-origin: 383.361px 347.96px;" id="el0uherc7aac0e" class="animable"></path><path d="M401.79,342.75c-.31-1.52-.62-3.05-.92-4.57a6.9,6.9,0,0,0-.78-2.33,2.31,2.31,0,0,0-2-1.17c-2.75-.36-6.63-1.36-8.92.22a20.59,20.59,0,0,1-12.33,3.58c-2.28-.09-4.56-.56-6.83-.28s-4.61,1.54-5.29,3.72a4.42,4.42,0,0,0-.11,2,5.47,5.47,0,0,0,1.2,2.63A8,8,0,0,0,370,349a21.15,21.15,0,0,0,4.9.54c5,.12,9.88-.79,14.91.12,2.25.41,4.5,1,6.78.87s4.67-1.43,5.36-3.61a4.83,4.83,0,0,0,.18-.84A10.74,10.74,0,0,0,401.79,342.75Z" style="fill: rgb(55, 71, 79); transform-origin: 383.345px 342.292px;" id="elfyhhy5i5lpn" class="animable"></path><path d="M388.46,330.1l-.2,6a2.36,2.36,0,0,0,2.19,2.44,36.46,36.46,0,0,0,6-.06,3.38,3.38,0,0,0,3.07-3.19l.24-4.4Z" style="fill: rgb(255, 168, 167); transform-origin: 394.009px 334.368px;" id="elge5sghhesm9" class="animable"></path><path d="M427.37,326.93a4.56,4.56,0,0,1-.8,2.47,4.46,4.46,0,0,1-2.81,1.58,7.12,7.12,0,0,1-7-2.87c-.75-1.09-1.17-2.37-1.88-3.48a15.92,15.92,0,0,0-3.92-3.8,16.86,16.86,0,0,1-3.94-3.78,5.6,5.6,0,0,1-.76-5.05,4.41,4.41,0,0,0-.36.64,5.73,5.73,0,0,0,.7,5.37,16.93,16.93,0,0,0,4,3.89,16.2,16.2,0,0,1,4,3.93c.72,1.14,1.16,2.46,1.92,3.58a7.25,7.25,0,0,0,7.13,3,4.58,4.58,0,0,0,2.87-1.63,5.5,5.5,0,0,0,.83-3.43C427.39,327.19,427.38,327.06,427.37,326.93Z" style="fill: rgb(38, 50, 56); transform-origin: 416.453px 322.254px;" id="el0j9tz61q293h" class="animable"></path><path d="M425.57,319.45c-1.82-3.17-5.55-5.48-8.44-7.73a10.73,10.73,0,0,0-5.58-2.54,5.24,5.24,0,0,0-5.2,2.66c0,.05,0,.11-.07.16a5.6,5.6,0,0,0,.76,5.05,16.86,16.86,0,0,0,3.94,3.78,15.92,15.92,0,0,1,3.92,3.8c.71,1.11,1.13,2.39,1.88,3.48a7.12,7.12,0,0,0,7,2.87,4.46,4.46,0,0,0,2.81-1.58,4.56,4.56,0,0,0,.8-2.47,8.17,8.17,0,0,0,0-.86A14,14,0,0,0,425.57,319.45Z" style="fill: rgb(55, 71, 79); transform-origin: 416.695px 320.114px;" id="el2oxy6l1dwpz" class="animable"></path><path d="M417.71,316.7v5.42a9.09,9.09,0,0,0,8.43-.38l.51-4.87Z" style="fill: rgb(255, 168, 167); transform-origin: 422.18px 319.838px;" id="el9by7qdss1ai" class="animable"></path><path d="M428.07,218.43c1.62,4.87-.38,28-1.32,50.23,3.52,8.4,2.57,32.23.54,49.16,0,0-3.52,2.16-9.89,0l-8-46.72-1.1-26.41s-2,23.43-4.31,38.46c2.16,11.51,1.62,13.68-3.73,49.08a13.34,13.34,0,0,1-12,0c-3-49.74-1.91-95.07-1.34-111.37Z" style="fill: rgb(69, 90, 100); transform-origin: 407.677px 276.043px;" id="eldnvpu16i4jc" class="animable"></path><path d="M386,181.05v41.17c24.24,10.15,39.94,1,42.08-3.79-1.12-16.76,2.84-36.36,2.54-44.69s-1.33-17.71-14.24-15.83l-13.73,1.34-7,1.69Z" style="fill: rgb(186, 104, 200); transform-origin: 408.318px 192.24px;" id="elfcfwdpnvnqf" class="animable"></path><path d="M394.48,127.22c-2.94-1.11-5.82-5.34-2.87-7.2.82-.61,3.21.1,5.14,0-1.69-1.53-2.1-3.36-1.25-3.93s3.12,1.59,7.23,1.18,18.28-5,20.06,5.39A2.72,2.72,0,0,1,427,122L424,124c4.37,6.14,2.95,13.25-7.63,27.3A7.77,7.77,0,0,1,406,152.82l-4.37-10.77-4.26-5.18Z" style="fill: rgb(38, 50, 56); transform-origin: 408.687px 135.032px;" id="elcws21sos4a" class="animable"></path><polygon points="393.5 135.82 390.66 140.77 393.77 141.92 393.5 135.82" style="fill: rgb(242, 143, 143); transform-origin: 392.215px 138.87px;" id="el9wh7ynk3tu" class="animable"></polygon><path d="M394.48,127.22a46,46,0,0,0-.81,21,7.24,7.24,0,0,0,1.3,3.33,5.25,5.25,0,0,0,3.62,1.66,15.43,15.43,0,0,0,4.05-.39v6.43c4.88,1.15,9.9,1.61,13.73-1.34v-6.58a17.41,17.41,0,0,1-8.53.53c-3.37-1.82-4-8-3.57-9.6a2.52,2.52,0,0,0,2.64.92,3.55,3.55,0,0,0,2.19-1.74,7.38,7.38,0,0,0,.81-2.73,4.93,4.93,0,0,0-.5-3.39,3.54,3.54,0,0,0-3.82-1.29,5.47,5.47,0,0,0-3.21,2.69,7.64,7.64,0,0,0-.57,1.23.76.76,0,0,1-1.48-.19,10.18,10.18,0,0,1,1-5.38,3.74,3.74,0,0,1-2.76-1.69,3.52,3.52,0,0,1-.53-3.09A10.33,10.33,0,0,1,394.48,127.22Z" style="fill: rgb(255, 168, 167); transform-origin: 404.598px 143.678px;" id="elred6dgg3kt" class="animable"></path><g id="el5z43dh5uf8w"><path d="M409,260.77l-.9-21.53c5.56,0,10.73-4.16,14.65-8.1-3.77,6.72-11.08,9.7-11.08,9.7Z" style="opacity: 0.2; transform-origin: 415.425px 245.955px;" class="animable"></path></g><path d="M386,210.32v-12l4.13-7.8-12.45-7.74-6.58,13.34a8.1,8.1,0,0,0,5.11,11.4Z" style="fill: rgb(255, 168, 167); transform-origin: 380.195px 196.55px;" id="el20n6kdqs07m" class="animable"></path><polygon points="385.99 198.33 381.74 204.57 385.99 202.79 385.99 198.33" style="fill: rgb(242, 143, 143); transform-origin: 383.865px 201.45px;" id="elvxouw2max2" class="animable"></polygon><path d="M395.67,160.94l-3.14.45a12.64,12.64,0,0,0-9.78,7.46l-6.68,15.41c5.15,8.21,15.06,7.59,15.06,7.59l6.76-13.08A15.87,15.87,0,0,0,395.67,161Z" style="fill: rgb(55, 71, 79); transform-origin: 387.859px 176.4px;" id="el60budc49ren" class="animable"></path></g><g id="freepik--character-2--inject-146" class="animable" style="transform-origin: 274.08px 186.599px;"><path d="M319.16,137.76l3.34-2.48a6.57,6.57,0,0,0,2.27-3.05l.79-2.17a8.18,8.18,0,0,1,2.8-3.74,28.09,28.09,0,0,0,5.12-4.92h0a3.08,3.08,0,0,1,.22,3.89,22.43,22.43,0,0,1-2,2.35l1.84.12a6.39,6.39,0,0,0,3.79-.92L342,124a.89.89,0,0,1,1.35.75,20.53,20.53,0,0,1-1.35,6.76A7.61,7.61,0,0,1,337.5,136c-2.48.95-4.89,1.77-6.27,2.23a7.88,7.88,0,0,0-2.19,1.14L324.13,143Z" style="fill: rgb(255, 168, 167); transform-origin: 331.255px 132.2px;" id="el2itrbzfag9p" class="animable"></path><path d="M322.79,134.53l-4.22,2.72A8.25,8.25,0,0,0,324,144.3l3.87-3.66S324.14,140.06,322.79,134.53Z" style="fill: rgb(55, 71, 79); transform-origin: 323.22px 139.415px;" id="eloioukijn9g" class="animable"></path><path d="M320.14,141.42a8.48,8.48,0,0,1-1.57-4.17l-13.18,8.51L297.61,124a8.23,8.23,0,0,0-6.68-5.38l-3.8-.49,3.54,25.49,6.06,12.15a8.09,8.09,0,0,0,12.37,2.64L324,144.3A8.44,8.44,0,0,1,320.14,141.42Z" style="fill: rgb(69, 90, 100); transform-origin: 305.565px 139.188px;" id="elrtnp1q3fg6a" class="animable"></path><path d="M304,283.94a8.17,8.17,0,0,1-6.17,2.27,18.86,18.86,0,0,1-6.52-1.64c-2.08-.86-4.7-3.26-7-3.22a53.63,53.63,0,0,1-6.59-.45,34.58,34.58,0,0,1,.93-8.93l10.53-.28c2.84,3.89,8.37,7.13,12.55,8.35a3.68,3.68,0,0,1,2.6,2.76.15.15,0,0,1,0,.07A4,4,0,0,1,304,283.94Z" style="fill: rgb(69, 90, 100); transform-origin: 291.021px 278.958px;" id="el2v1m4g0ikve" class="animable"></path><path d="M284.31,281.35c2.26,0,4.88,2.36,7,3.22a18.86,18.86,0,0,0,6.52,1.64,8.17,8.17,0,0,0,6.17-2.27,4,4,0,0,0,.36-1.07.15.15,0,0,0,0-.07,3.35,3.35,0,0,1,0,1.41,4.2,4.2,0,0,1-.36,1.07,8.25,8.25,0,0,1-6.17,2.27,18.66,18.66,0,0,1-6.52-1.65c-2.08-.86-4.7-3.26-7-3.21a48.91,48.91,0,0,1-6.49-.38c-.05-.47-.08-.94-.1-1.41A53.63,53.63,0,0,0,284.31,281.35Z" style="fill: rgb(38, 50, 56); transform-origin: 291.078px 284.232px;" id="elwlaxhrpxp3" class="animable"></path><path d="M254.59,284.93a15.41,15.41,0,0,0,.31,3.19,7.4,7.4,0,0,0,2.92,4.66,9.44,9.44,0,0,0,4.64,1.24,10.49,10.49,0,0,0,4.25-.44,4.84,4.84,0,0,0,2.48-2,.07.07,0,0,1,0,.05,4.46,4.46,0,0,1-2.86,3,10.27,10.27,0,0,1-4.24.44,9.39,9.39,0,0,1-4.64-1.24,7.4,7.4,0,0,1-2.92-4.65,15.58,15.58,0,0,1-.32-3.2,5.35,5.35,0,0,0-1.71-3.9c-.26-.25-.51-.5-.74-.77a1.87,1.87,0,0,1-.46-1.39c0-.2,0-.4.06-.59.39.45,1.3,1.53,1.53,1.75A5.39,5.39,0,0,1,254.59,284.93Z" style="fill: rgb(38, 50, 56); transform-origin: 260.244px 287.229px;" id="elpfttjqfac7" class="animable"></path><path d="M262.64,273.81a11.71,11.71,0,0,0,.82,6.47,24.6,24.6,0,0,0,3.43,5.63,16.62,16.62,0,0,1,1.79,2.62,4.63,4.63,0,0,1,.51,3,4.84,4.84,0,0,1-2.48,2,10.49,10.49,0,0,1-4.25.44,9.44,9.44,0,0,1-4.64-1.24,7.4,7.4,0,0,1-2.92-4.66,15.41,15.41,0,0,1-.31-3.19,5.39,5.39,0,0,0-1.71-3.9c-.23-.22-1.14-1.3-1.53-1.75a11.82,11.82,0,0,1,1.58-4.51Z" style="fill: rgb(69, 90, 100); transform-origin: 260.302px 283.917px;" id="elqahjhn0ck0l" class="animable"></path><path d="M293.74,169.81l-.87,60.06-2.84,42c-7.17,4.54-12.37.82-12.37.82-2.72-19.91-3.09-32.15-1.6-40.44l-1.36-32.41-4.09,33.64-6.86,41.25c-7.36,4.77-12.56,0-12.56,0,0-15.27-1.36-32.34,2.85-43.35a252.89,252.89,0,0,1,2-61Z" style="fill: rgb(38, 50, 56); transform-origin: 272.36px 223.33px;" id="el56njo5lltrt" class="animable"></path><g id="elkys73hkoeca"><path d="M276.2,187.5l-1.5,12.37.63,15.18,2.77-25c6.4-2.51,7.23-6,7.23-6A19.71,19.71,0,0,1,276.2,187.5Z" style="opacity: 0.3; transform-origin: 280.015px 199.55px;" class="animable"></path></g><path d="M280.11,117.37l7,.74c5.75,5.07,8.72,15.71,7.48,27.46a208.16,208.16,0,0,0-.87,24.24c-15.58,11.38-35.25,3.1-37.72.62l1.15-14.4a10,10,0,0,0-.78-4.75c-1.48-3.42-4.1-10.14-4.45-15.36a27.25,27.25,0,0,1,2.84-13.42L265,118.05Z" style="fill: rgb(55, 71, 79); transform-origin: 273.38px 146.517px;" id="el0zccls6e3opj" class="animable"></path><path d="M256.39,151.28a60.57,60.57,0,0,1-4.23-13.43c1.45.87,3,1.73,3.58,3.18a25.5,25.5,0,0,1,1.44,14.7A10,10,0,0,0,256.39,151.28Z" style="fill: rgb(55, 71, 79); transform-origin: 254.915px 146.79px;" id="elltqtvp6et4" class="animable"></path><path d="M282.06,127.61A76.06,76.06,0,0,1,287.84,155L285,161.25l-4.53-5.94a233.39,233.39,0,0,0-.55-27.3Z" style="fill: rgb(186, 104, 200); transform-origin: 283.88px 144.43px;" id="eljzp2sisq32q" class="animable"></path><path d="M282.3,122.5a21.25,21.25,0,0,1-.24,5.11,4.16,4.16,0,0,1-2.19.4,18,18,0,0,1-3.51-4.24l3.51-1.27Z" style="fill: rgb(186, 104, 200); transform-origin: 279.359px 125.263px;" id="eldldvfuu34n" class="animable"></path><path d="M279.87,122.5c-3,1.12-5.71,6.5-5.71,6.5-7.94-6.74-9.17-11-9.17-11a7.83,7.83,0,0,1,4.26-3.37Z" style="fill: rgb(55, 71, 79); transform-origin: 272.43px 121.815px;" id="elkepwgk8m52" class="animable"></path><path d="M279.87,122.5c2.31.06,4.35,3.28,4.35,3.28.37-5.63-4.35-10-4.35-10Z" style="fill: rgb(55, 71, 79); transform-origin: 282.055px 120.78px;" id="eli9ex8z1y74k" class="animable"></path><path d="M269.07,108.38l10.8,3.86v4a17.71,17.71,0,0,1-6.85-2.49A10.47,10.47,0,0,1,269.07,108.38Z" style="fill: rgb(242, 143, 143); transform-origin: 274.47px 112.31px;" id="elejxk51dm3gk" class="animable"></path><path d="M269.07,108.38a10.47,10.47,0,0,0,3.95,5.37,17.71,17.71,0,0,0,6.85,2.49v6.26s-11.42-5.13-11.42-7.54v-6.81Z" style="fill: rgb(255, 168, 167); transform-origin: 274.16px 115.325px;" id="elm22it6c9fw" class="animable"></path><path d="M289.88,92.53a6.54,6.54,0,0,0,4.25-1.38,6.61,6.61,0,0,0,1.68-2,.9.9,0,0,0-1-1.29,7.07,7.07,0,0,1-2.51,0,11.85,11.85,0,0,0,2.33-8.84,1.12,1.12,0,0,0-1.59-.84A21.83,21.83,0,0,1,282,80.5c-2-.15-4.05-.58-6.09-.74a11.33,11.33,0,0,0-6,.92,5.68,5.68,0,0,0-3.27,4.82,2.81,2.81,0,0,0-2-1.17,3.06,3.06,0,0,0-2.36.7c1.18.64,2.33,1.3,3.51,1.94-1.21-.43-2.73.52-3.33,1.65a8,8,0,0,0-.65,3.76,28,28,0,0,0,.23,5.1,9.87,9.87,0,0,0,1.93,4.67,7.38,7.38,0,0,0,3.51,2.38,9.6,9.6,0,0,0,5.71-.18,23.13,23.13,0,0,0,5.17-2.58A80.76,80.76,0,0,0,289.88,92.53Z" style="fill: rgb(224, 224, 224); transform-origin: 278.845px 91.4749px;" id="el3c1z9ssz21x" class="animable"></path><path d="M290.14,89.13a39.31,39.31,0,0,1-2.25,21,7.52,7.52,0,0,1-2.85,4c-1.5.86-3.37.68-5.08.42a26,26,0,0,1-8-2.26,11,11,0,0,1-5.56-6,4.81,4.81,0,0,1-4.87-1.91A9.12,9.12,0,0,1,259.92,99c0-1.2.22-2.62,1.3-3.15a3,3,0,0,1,3.09.77,9.17,9.17,0,0,1,3,4.5c.79-2.93,2-5.76,2.82-8.69a4.94,4.94,0,0,1,1.71-3c1.23-.79,2.83-.34,4.25,0A27.87,27.87,0,0,0,290.14,89.13Z" style="fill: rgb(255, 168, 167); transform-origin: 275.297px 101.878px;" id="el6wyj20slze8" class="animable"></path><polygon points="281.6 98.03 285.02 103.8 280.94 104.56 281.6 98.03" style="fill: rgb(242, 143, 143); transform-origin: 282.98px 101.295px;" id="elxlu5eruyt2d" class="animable"></polygon><path d="M277,106.55l3.11,1.51a2,2,0,0,1-2.36.67A1.83,1.83,0,0,1,277,106.55Z" style="fill: rgb(242, 143, 143); transform-origin: 278.499px 107.713px;" id="el2wr7olz2npv" class="animable"></path><g id="ela4hgiy0gqb5"><path d="M277,106.55l3.11,1.51a2,2,0,0,1-2.36.67A1.83,1.83,0,0,1,277,106.55Z" style="opacity: 0.3; transform-origin: 278.499px 107.713px;" class="animable"></path></g><path d="M278.83,108.83a1.79,1.79,0,0,1-1.08-.1,1.66,1.66,0,0,1-.83-1.63,1.88,1.88,0,0,1,1.91,1.73Z" style="fill: rgb(242, 143, 143); transform-origin: 277.87px 107.986px;" id="el7x2h6d3dl82" class="animable"></path><path d="M275.68,98.26A1.18,1.18,0,1,0,277,97.21,1.18,1.18,0,0,0,275.68,98.26Z" style="fill: rgb(38, 50, 56); transform-origin: 276.854px 98.3809px;" id="eljw60txyn418" class="animable"></path><path d="M285.52,98.87a1.18,1.18,0,1,0,1.29-1.05A1.18,1.18,0,0,0,285.52,98.87Z" style="fill: rgb(38, 50, 56); transform-origin: 286.693px 98.9942px;" id="elvdr5vks8cud" class="animable"></path><path d="M287.13,94.34l2.4,2a1.69,1.69,0,0,0-.32-1.89A2,2,0,0,0,287.13,94.34Z" style="fill: rgb(224, 224, 224); transform-origin: 288.409px 95.22px;" id="el0e889empa32i" class="animable"></path><path d="M277.14,93.19l-2.77,1.53a1.69,1.69,0,0,1,.69-1.78A2,2,0,0,1,277.14,93.19Z" style="fill: rgb(224, 224, 224); transform-origin: 275.733px 93.7383px;" id="eli6tmugjphji" class="animable"></path><path d="M230.91,147.86,227.18,146a6.62,6.62,0,0,1-2.77-2.6l-1.17-2a8.17,8.17,0,0,0-3.42-3.17,28.07,28.07,0,0,1-5.92-3.93h0a3.09,3.09,0,0,0,.48,3.87,22.18,22.18,0,0,0,2.43,1.94l-1.79.45a6.39,6.39,0,0,1-3.89-.23l-5.11-2a.88.88,0,0,0-1.19,1,19.94,19.94,0,0,0,2.53,6.41,7.62,7.62,0,0,0,5.19,3.64c2.61.49,5.13.87,6.56,1.08a7.71,7.71,0,0,1,2.36.73l5.48,2.72Z" style="fill: rgb(255, 168, 167); transform-origin: 217.86px 144.105px;" id="els2quhlsg6nm" class="animable"></path><path d="M234.46,153.6a9.29,9.29,0,0,0,.65-4.86l7,3.32a143.74,143.74,0,0,0,3-15.48c.84-7.05.65-11.79,9.71-14.08l1,18.53s-1.11,22.63-7.61,25.14c-5.37,2.07-9.17-3-17.37-8.34A9.27,9.27,0,0,0,234.46,153.6Z" style="fill: rgb(69, 90, 100); transform-origin: 243.33px 144.572px;" id="el1m0o9nl5swr" class="animable"></path><path d="M228.67,146.46l6.44,2.28a9.11,9.11,0,0,1-4.35,9.09,47.05,47.05,0,0,1-5.34-4.26S228.21,152.59,228.67,146.46Z" style="fill: rgb(55, 71, 79); transform-origin: 230.309px 152.145px;" id="elk4n5hfx4i4p" class="animable"></path></g><g id="freepik--Table--inject-146" class="animable" style="transform-origin: 350.09px 388.84px;"><polygon points="291.5 372.95 362.49 331.89 408.69 358.78 338.34 399.64 291.5 372.95" style="fill: rgb(230, 181, 228); transform-origin: 350.095px 365.765px;" id="elf9kj3rbr4yf" class="animable"></polygon><polygon points="291.5 428.86 291.5 372.95 338.34 399.64 338.34 455.9 291.5 428.86" style="fill: rgb(186, 104, 200); transform-origin: 314.92px 414.425px;" id="elku4ozaejl2" class="animable"></polygon><polygon points="338.34 455.9 408.69 415.04 408.69 358.78 338.34 399.64 338.34 455.9" style="fill: rgb(186, 104, 200); transform-origin: 373.515px 407.34px;" id="ells17x6bhln" class="animable"></polygon><g id="elx3nv2ek6i5b"><polygon points="338.34 455.9 408.69 415.04 408.69 358.78 338.34 399.64 338.34 455.9" style="opacity: 0.3; transform-origin: 373.515px 407.34px;" class="animable"></polygon></g><polygon points="286.1 366.62 363.64 321.78 414.08 351.15 337.25 395.77 286.1 366.62" style="fill: rgb(186, 104, 200); transform-origin: 350.09px 358.775px;" id="elbm3rdrwhbhg" class="animable"></polygon><polygon points="286.1 373.87 286.1 366.62 337.25 395.77 337.25 403.4 286.1 373.87" style="fill: rgb(186, 104, 200); transform-origin: 311.675px 385.01px;" id="elaz7mopb0z1t" class="animable"></polygon><polygon points="337.25 403.4 414.08 358.77 414.08 351.15 337.25 395.77 337.25 403.4" style="fill: rgb(186, 104, 200); transform-origin: 375.665px 377.275px;" id="elub2dsu61zj" class="animable"></polygon><g id="elodmrp9885d"><polygon points="286.1 373.87 286.1 366.62 337.25 395.77 337.25 403.4 286.1 373.87" style="fill: rgb(255, 255, 255); opacity: 0.3; transform-origin: 311.675px 385.01px;" class="animable"></polygon></g><g id="elyj917ggc5rc"><polygon points="337.25 403.4 414.08 358.77 414.08 351.15 337.25 395.77 337.25 403.4" style="opacity: 0.2; transform-origin: 375.665px 377.275px;" class="animable"></polygon></g></g><g id="freepik--Projector--inject-146" class="animable animator-active" style="transform-origin: 222.255px 208.47px;"><g id="elv04mdor3c3g"><g style="opacity: 0.2; transform-origin: 197.285px 183.87px;" class="animable"><polygon points="49.15 120 331.89 322.79 345.42 314.93 199.02 32.84 49.15 120" style="fill: rgb(186, 104, 200); transform-origin: 197.285px 177.815px;" id="el0ab9pj2wtleq" class="animable"></polygon><polygon points="331.89 322.79 331.89 334.9 49.15 266.5 49.15 120 331.89 322.79" style="fill: rgb(186, 104, 200); transform-origin: 190.52px 227.45px;" id="el9ojt08exf7h" class="animable"></polygon></g></g><polygon points="329.98 323.9 347.32 313.82 352.9 316.86 335.08 327.17 329.98 323.9" style="fill: rgb(55, 71, 79); transform-origin: 341.44px 320.495px;" id="elwump7z8s99" class="animable"></polygon><polygon points="329.98 323.9 329.98 338.67 334.97 341.7 335.08 327.17 329.98 323.9" style="fill: rgb(38, 50, 56); transform-origin: 332.53px 332.8px;" id="elmfz6a6ge7wk" class="animable"></polygon><polygon points="303.82 345.24 359.28 313.17 395.36 334.18 340.41 366.1 303.82 345.24" style="fill: rgb(69, 90, 100); transform-origin: 349.59px 339.635px;" id="ele6c2sbdepl" class="animable"></polygon><polygon points="339.78 329.84 360.24 318.01 373.56 325.76 353.28 337.54 339.78 329.84" style="fill: rgb(38, 50, 56); transform-origin: 356.67px 327.775px;" id="eli1lgtv1a5m" class="animable"></polygon><polygon points="303.82 362.97 303.82 345.24 340.41 366.1 340.41 384.1 303.82 362.97" style="fill: rgb(55, 71, 79); transform-origin: 322.115px 364.67px;" id="el8t9diop3r" class="animable"></polygon><polygon points="340.41 384.1 395.36 352.18 395.36 334.18 340.41 366.1 340.41 384.1" style="fill: rgb(38, 50, 56); transform-origin: 367.885px 359.14px;" id="elqv5jx26xhv" class="animable"></polygon><path d="M335.77,373.23a1.32,1.32,0,0,1,.6,1c0,.38-.27.54-.6.35l-16.13-9.31a1.33,1.33,0,0,1-.6-1c0-.38.27-.53.6-.34Z" style="fill: rgb(38, 50, 56); transform-origin: 327.705px 369.254px;" id="elsbozdeql1en" class="animable"></path><path d="M335.78,371a1.31,1.31,0,0,1,.59,1c0,.38-.27.53-.6.34L319.65,363a1.31,1.31,0,0,1-.6-1c0-.38.27-.53.6-.34Z" style="fill: rgb(38, 50, 56); transform-origin: 327.71px 367px;" id="elubkkb25fk7k" class="animable"></path><path d="M335.76,375.49a1.32,1.32,0,0,1,.6,1c0,.38-.27.54-.6.35l-16.13-9.31a1.35,1.35,0,0,1-.6-1c0-.38.28-.53.61-.34Z" style="fill: rgb(38, 50, 56); transform-origin: 327.695px 371.514px;" id="el1ohug0d984e" class="animable"></path><path d="M335.78,368.71a1.33,1.33,0,0,1,.6,1c0,.38-.27.53-.6.34l-16.13-9.31a1.32,1.32,0,0,1-.6-1,.37.37,0,0,1,.61-.35Z" style="fill: rgb(38, 50, 56); transform-origin: 327.711px 364.714px;" id="elos14sixgx1" class="animable"></path><path d="M345.05,373.23a1.32,1.32,0,0,0-.6,1c0,.38.27.54.6.35l22.14-12.82a1.32,1.32,0,0,0,.6-1c0-.38-.27-.53-.6-.34Z" id="elkmkmh00qud" class="animable" style="transform-origin: 356.12px 367.499px;"></path><path d="M345,371a1.31,1.31,0,0,0-.59,1c0,.38.27.53.6.34l22.14-12.82a1.28,1.28,0,0,0,.59-1c0-.38-.27-.54-.6-.35Z" id="elhi1z8rgi7b" class="animable" style="transform-origin: 356.075px 365.256px;"></path><path d="M345.06,375.49a1.29,1.29,0,0,0-.6,1c0,.38.27.54.6.35l22.14-12.82a1.33,1.33,0,0,0,.6-1c0-.38-.27-.53-.61-.34Z" id="elhbqsv1dl54v" class="animable" style="transform-origin: 356.13px 369.759px;"></path><path d="M345,368.71a1.31,1.31,0,0,0-.6,1c0,.38.27.53.6.34l22.14-12.82a1.32,1.32,0,0,0,.6-1c0-.38-.27-.53-.6-.34Z" id="eltrzdbahrubr" class="animable" style="transform-origin: 356.07px 362.97px;"></path><path d="M370.8,358.39a1.32,1.32,0,0,0-.6,1c0,.38.27.54.6.35L392.94,347a1.33,1.33,0,0,0,.6-1c0-.38-.27-.53-.6-.34Z" id="el9tx5is5tn7n" class="animable" style="transform-origin: 381.87px 352.699px;"></path><path d="M370.79,356.13a1.3,1.3,0,0,0-.59,1c0,.39.27.54.6.35l22.14-12.82a1.28,1.28,0,0,0,.59-1c0-.38-.27-.54-.6-.35Z" id="elujzpcmxz5" class="animable" style="transform-origin: 381.865px 350.396px;"></path><path d="M370.81,360.65a1.29,1.29,0,0,0-.6,1c0,.38.27.54.6.35L393,349.21a1.33,1.33,0,0,0,.6-1c0-.38-.27-.53-.61-.34Z" id="elda2acn7z2a" class="animable" style="transform-origin: 381.905px 354.934px;"></path><path d="M370.79,353.87a1.33,1.33,0,0,0-.6,1c0,.38.27.53.6.34l22.14-12.82a1.32,1.32,0,0,0,.6-1c0-.38-.27-.54-.6-.34Z" id="el58rzo26xheu" class="animable" style="transform-origin: 381.86px 348.128px;"></path></g><g id="freepik--character-1--inject-146" class="animable" style="transform-origin: 176.442px 308.237px;"><path d="M171.87,403.44a31.86,31.86,0,0,0,14.49,8.25c1.57.4,3.42.88,4,2.4s-.41,3-1.63,4a9.84,9.84,0,0,1-7,1.58,30.92,30.92,0,0,1-7-2,26.07,26.07,0,0,0-7.07-1.8,33.09,33.09,0,0,1-3.45-.2,4.18,4.18,0,0,1-2.89-1.7c0-7,1.82-9.54,1.82-9.54Z" style="fill: rgb(55, 71, 79); transform-origin: 175.925px 411.611px;" id="elgpurk43g1h8" class="animable"></path><path d="M172,400.33v4.76c-3.2,3.5-8.28,1.17-8.9-.69l-.16-4.07Z" style="fill: rgb(140, 76, 76); transform-origin: 167.47px 403.615px;" id="elvuarpt4o19" class="animable"></path><path d="M148.12,383.27c5.69-5.14,8.85-4.94,10.22-3.91s3.84,4.32-2.47,9.88-5.83,9-10.22,9-3.57-4.39-3.57-4.39a19.36,19.36,0,0,1,.69-4.5Z" style="fill: rgb(55, 71, 79); transform-origin: 151.002px 388.507px;" id="elqbjxi48g90s" class="animable"></path><path d="M150.18,386.57v3.36c-2.68,2.3-7.17,1-7.41-.59L143,386Z" style="fill: rgb(140, 76, 76); transform-origin: 146.475px 388.587px;" id="el74bncy8s376" class="animable"></path><path d="M176.25,293.13l2.46,58.45L172,400.33c-3.57,2.29-9.06,0-9.06,0-.73-15-4-36.27-1.42-47.65l-4.94-31.42L155,346.5c-.28,14.82-4.12,30.6-4.8,40.07A8.32,8.32,0,0,1,143,386c-2.22-19.71-6.61-30.33-2.4-44.41-2.93-26.53-5.43-43-1.75-49.72Z" style="fill: rgb(69, 90, 100); transform-origin: 157.86px 346.609px;" id="elhnnt5kvqgir" class="animable"></path><g id="eli4rvqoqxagn"><path d="M155.68,315.27l.94,6-.51,8-1.89-12.49a11.42,11.42,0,0,1-8.16-5.22A21.18,21.18,0,0,0,155.68,315.27Z" style="opacity: 0.2; transform-origin: 151.34px 320.415px;" class="animable"></path></g><path d="M164.89,238.39l-17.24-2.31c-7.21-.7-10.31,7.22-10.21,14.53.05,4.31,3,20.72,4.42,32-2.85,6.87-5.7,15.66-5.7,21.21,13.12,11.22,37.62,3.1,40.52-.3,0-18-1.37-45.12-1.37-45.12Z" style="fill: rgb(245, 245, 245); transform-origin: 156.42px 272.795px;" id="eltc9o7oxky7a" class="animable"></path><polygon points="174.08 217.59 176.77 222.27 173.82 223.36 174.08 217.59" style="fill: rgb(99, 44, 44); transform-origin: 175.295px 220.475px;" id="elkgvvh76f28" class="animable"></polygon><path d="M174.38,215.5c-.43-4.11-1.63-8-4.31-9.95a22.11,22.11,0,0,1-3.08,14.7,6.44,6.44,0,0,0-2-3.52,3.71,3.71,0,0,0-3.83-.82,3.81,3.81,0,0,0-1.92,2.1,5,5,0,0,0,6.23,6.59,9.56,9.56,0,0,1-7.36,7.46,12.35,12.35,0,0,1-7.15-.67l-1.11,5.53c4.51,4.81,12.21,1.58,12.21,1.58l1-5.45c8.87.53,9.7.38,10.67-4.51A47.51,47.51,0,0,0,174.38,215.5Z" style="fill: rgb(140, 76, 76); transform-origin: 162.207px 222.556px;" id="eladz01wiw1ul" class="animable"></path><path d="M175.44,205.65a14.24,14.24,0,0,0-8.46-7.73,24.15,24.15,0,0,0-11.64-.89,21.21,21.21,0,0,0-7,2.05,11.77,11.77,0,0,0-5.14,5.12l-.46-3.78a2.76,2.76,0,0,0-2,1.83,3,3,0,0,0,.69,2.77h-.35a11.89,11.89,0,0,0-11.89,11.9v20.19a11.68,11.68,0,0,0,11.67-11.68v-4.64a22.06,22.06,0,0,0,6.72,8.75,15,15,0,0,0,3.38,1.85,12.35,12.35,0,0,0,7.15.67,9.56,9.56,0,0,0,7.36-7.46,5,5,0,0,1-6.23-6.59,3.81,3.81,0,0,1,1.92-2.1,3.71,3.71,0,0,1,3.83.82,6.44,6.44,0,0,1,2,3.52,22.11,22.11,0,0,0,3.08-14.7c2.68,2,3.88,5.84,4.31,9.95A10.45,10.45,0,0,0,175.44,205.65Z" style="fill: rgb(38, 50, 56); transform-origin: 152.701px 216.9px;" id="elh82s404v4bc" class="animable"></path><path d="M165.12,252.8l10.35,7.49c.19,2.41.29,7.33.47,12.77-1.7-1.92-3.12-4.33-4.62-6.42A38,38,0,0,1,165.12,252.8Z" style="fill: rgb(230, 230, 230); transform-origin: 170.53px 262.93px;" id="elx28vsbp18r" class="animable"></path><polygon points="222.15 224.55 210.04 259.64 185 245.75 196.98 211.05 222.15 224.55" style="fill: rgb(186, 104, 200); transform-origin: 203.575px 235.345px;" id="elsh6klyvzs6m" class="animable"></polygon><polygon points="188.72 244.33 198.69 215.43 218.42 226.01 208.34 255.21 188.72 244.33" style="fill: rgb(255, 255, 255); transform-origin: 203.57px 235.32px;" id="el7kw6igkdvpo" class="animable"></polygon><polygon points="202.17 217.57 213.13 223.32 213.61 221.86 211.48 219.99 205.48 216.97 202.74 216.46 202.17 217.57" style="fill: rgb(69, 90, 100); transform-origin: 207.89px 219.89px;" id="el0a15v2zpmqcs" class="animable"></polygon><polygon points="205.48 216.97 205.95 215.86 211.81 219 211.48 219.99 205.48 216.97" style="fill: rgb(55, 71, 79); transform-origin: 208.645px 217.925px;" id="el7v9tyutnahv" class="animable"></polygon><polygon points="202.55 214.03 215.8 221.15 216.37 219.77 203 212.75 202.55 214.03" style="fill: rgb(69, 90, 100); transform-origin: 209.46px 216.95px;" id="els669v9oqzms" class="animable"></polygon><path d="M206.13,214.39c1.16-3.65,8.08-.21,6.73,3.53Z" style="fill: rgb(55, 71, 79); transform-origin: 209.582px 215.378px;" id="ellpwastztit" class="animable"></path><path d="M183.21,252.87l9.24,12,16.06-15.8a5.59,5.59,0,0,0,1.63-3.29c.77-6,2.43-10.27,4.56-9.52,1.34.47-.38,6.31-.38,6.31l2-1.15,2.33-6.76h1.06a2.68,2.68,0,0,1,2.52,1.79l1,2.89a8.49,8.49,0,0,1-3,9.61l-3.53,2.61A5.49,5.49,0,0,0,215.4,253a176.56,176.56,0,0,1-18.84,24.08,4.8,4.8,0,0,1-6.08.62c-9.83-6.5-17.95-17.48-17.95-17.48Z" style="fill: rgb(140, 76, 76); transform-origin: 198.112px 256.584px;" id="elmwonuqd3svq" class="animable"></path><path d="M164.89,238.39l1.57.19a19.48,19.48,0,0,1,13.11,7.47l11.77,15.33a12.78,12.78,0,0,1-9.92,11.27L168.49,259C161.73,251.61,164.89,238.39,164.89,238.39Z" style="fill: rgb(186, 104, 200); transform-origin: 177.746px 255.52px;" id="el2qh9s9c0tqy" class="animable"></path></g><defs>     <filter id="active" height="200%">         <feMorphology in="SourceAlpha" result="DILATED" operator="dilate" radius="2"></feMorphology>                <feFlood flood-color="#32DFEC" flood-opacity="1" result="PINK"></feFlood>        <feComposite in="PINK" in2="DILATED" operator="in" result="OUTLINE"></feComposite>        <feMerge>            <feMergeNode in="OUTLINE"></feMergeNode>            <feMergeNode in="SourceGraphic"></feMergeNode>        </feMerge>    </filter>    <filter id="hover" height="200%">        <feMorphology in="SourceAlpha" result="DILATED" operator="dilate" radius="2"></feMorphology>                <feFlood flood-color="#ff0000" flood-opacity="0.5" result="PINK"></feFlood>        <feComposite in="PINK" in2="DILATED" operator="in" result="OUTLINE"></feComposite>        <feMerge>            <feMergeNode in="OUTLINE"></feMergeNode>            <feMergeNode in="SourceGraphic"></feMergeNode>        </feMerge>            <feColorMatrix type="matrix" values="0   0   0   0   0                0   1   0   0   0                0   0   0   0   0                0   0   0   1   0 "></feColorMatrix>    </filter></defs></svg>